Coordinates
version=1
nRows=9
nColumns=36
inDegrees=yes

Units are S.I. units (second, meters, Newtons, ...)
If the header above contains a line with 'inDegrees', this indicates whether rotational values are in degrees (yes) or radians (no).

endheader
time	pelvis_tilt	pelvis_list	pelvis_rotation	pelvis_tx	pelvis_ty	pelvis_tz	hip_flexion_r	hip_adduction_r	hip_rotation_r	knee_angle_r	knee_angle_r_beta	ankle_angle_r	subtalar_angle_r	mtp_angle_r	hip_flexion_l	hip_adduction_l	hip_rotation_l	knee_angle_l	knee_angle_l_beta	ankle_angle_l	subtalar_angle_l	mtp_angle_l	lumbar_extension	lumbar_bending	lumbar_rotation	arm_flex_r	arm_add_r	arm_rot_r	elbow_flex_r	pro_sup_r	arm_flex_l	arm_add_l	arm_rot_l	elbow_flex_l	pro_sup_l
      0.00000000	      4.02210524	     -5.41799315	      7.98147743	      0.40654734	      0.83683776	      0.34630820	     35.67214162	      0.83424407	     -8.91378645	     13.11462487	      0.22889338	     -3.53624005	     -6.07277054	     -7.00722290	     11.43655259	      3.59646692	     -4.03092558	     27.45344770	      0.47915305	     12.66221295	     -2.52434453	     -7.00722290	     -6.96067077	      0.66714137	      6.31459947	     61.79071708	      5.93767208	     68.00666315	    127.13775929	     96.88792592	     51.42568452	      8.99815253	     72.38887415	    118.74521757	     97.84406490
      0.01666670	      3.39911102	     -5.35402479	      7.52778446	      0.40185188	      0.83494980	      0.35009038	     36.73171889	      1.43257528	     -4.22152440	     13.74017293	      0.23981126	     -2.31912346	    -10.02886797	     -7.03175667	     12.50948443	      3.95659812	     -2.03617780	     28.58761591	      0.49894802	     13.39319580	     -4.56076727	     -7.03175667	     -7.29363360	      1.59080199	      5.17395906	     64.74740264	      8.85498514	     73.28021924	    126.12404184	     98.57908405	     50.86097384	      6.50816395	     74.85946742	    123.65222735	     96.48948431
      0.03333330	      2.35550365	     -5.63855628	      6.41163999	      0.39959720	      0.83607970	      0.34541701	     38.41123353	      2.25318045	     -3.09332282	     15.12188616	      0.26392670	     -2.66174872	    -10.76818978	     -7.14306600	     13.69989284	      3.64257224	     -2.65035687	     29.01509754	      0.50640898	     13.90382057	     -3.96382387	     -7.14306600	     -6.91183440	      2.29473548	      5.34979608	     65.86666603	      9.21001188	     75.30864086	    127.02719412	    102.23872831	     51.46454283	      5.29677864	     75.28085744	    125.25306342	     89.66923223
      0.05000000	      2.04055975	     -6.14183046	      6.26066642	      0.39500514	      0.83054157	      0.34291913	     39.89635638	      2.64442805	     -2.91351902	     15.26805263	      0.26647779	     -3.13341882	    -11.23926224	     -7.17138483	     14.73033727	      3.56129866	     -1.75719706	     30.04745503	      0.52442702	     13.87982338	     -4.74941592	     -7.17138483	     -7.52037259	      3.42688960	      5.08983134	     67.33910070	      9.35785528	     76.49680630	    127.15128132	    101.16611724	     53.14880240	      5.07938384	     74.31738486	    124.44298435	     88.12406462
      0.06666670	      2.35699284	     -6.27844941	      6.68226668	      0.38829135	      0.82989466	      0.34066823	     40.45156393	      2.52243488	     -2.69198512	     14.78217523	      0.25799763	     -3.50677632	    -11.64672503	     -7.20802661	     15.80702153	      3.72146731	     -1.10302502	     32.03959247	      0.55919638	     12.87986076	     -6.60901370	     -7.20802661	     -8.88203562	      4.16492593	      4.56424088	     68.50019269	      9.42817610	     77.07997437	    126.01836586	     99.98337633	     54.57686767	      5.03898218	     73.65185370	    124.12807374	     86.20310605
      0.08333330	      2.62255866	     -6.55954942	      7.10899669	      0.38973372	      0.82532806	      0.34006184	     40.78981042	      2.70094887	     -2.24940069	     13.67516118	      0.23867659	     -3.66258286	    -11.33969743	     -7.21372342	     16.99297437	      3.75109779	      0.05282902	     34.32826850	      0.59914131	     12.97458453	     -7.47047975	     -7.21372342	     -9.71436746	      4.78293461	      4.16916799	     68.83431699	      9.92755716	     77.47159247	    125.24488094	     99.87502093	     54.73814484	      5.17153042	     73.01251198	    123.71450452	     85.96155771
      0.10000000	      2.85457238	     -7.05778197	      7.41844913	      0.39242084	      0.82430206	      0.33604221	     40.97435031	      2.83245878	     -2.48922633	     12.98144454	      0.22656895	     -4.46863386	    -11.20813279	     -7.21840100	     17.20672373	      3.57684058	      1.00447527	     35.22242050	      0.61474721	     12.92510250	     -7.45385818	     -7.21840100	    -10.43883194	      5.57904110	      3.56810780	     68.66157631	      9.67794725	     77.52161774	    124.93384774	     99.69399536	     55.15333143	      5.20031931	     72.35277665	    123.19402517	     85.68038579
      0.11666670	      3.23670166	     -7.51363058	      8.07811716	      0.38732895	      0.82173528	      0.33297121	     40.85525735	      2.85681343	     -2.95825777	     11.91678530	      0.20798714	     -4.65228348	    -10.63472103	     -7.23793937	     17.67436802	      3.56707460	      1.93276231	     36.29184853	      0.63341225	     13.86994582	     -8.42380288	     -7.23793937	    -11.38955497	      6.21365153	      3.27801750	     68.91948204	      8.68385705	     77.20247751	    124.54724935	     99.02608133	     55.93663042	      6.19207747	     72.59812415	    123.26476372	     84.08904311
      0.13333330	      3.31696721	     -7.78303167	      8.50542718	      0.38601973	      0.81239679	      0.33239059	     41.70673867	      2.72044997	     -2.94753333	     11.55711774	      0.20170976	     -5.07732841	    -10.78779814	     -7.26369147	     18.77426111	      3.66144376	      3.03349271	     38.04507661	      0.66401185	     16.61164789	     -9.34290721	     -7.26369147	    -12.44651997	      6.59617769	      2.99704872	     70.06488866	      7.73275633	     76.29983524	    124.47521670	     96.44345383	     57.34992570	      2.92758140	     64.94099107	    120.19714897	     82.11084808
